<svg xmlns="http://www.w3.org/2000/svg" xmlns:xlink="http://www.w3.org/1999/xlink" width="500" zoomAndPan="magnify" viewBox="0 0 375 374.999991" height="500" preserveAspectRatio="xMidYMid meet" version="1.0"><defs><g/></defs><rect x="-37.5" width="450" fill="#ffffff" y="-37.499999" height="449.999989" fill-opacity="1"/><rect x="-37.5" width="450" fill="#ffffff" y="-37.499999" height="449.999989" fill-opacity="1"/><rect x="-37.5" width="450" fill="#ead9eb" y="-37.499999" height="449.999989" fill-opacity="1"/><g fill="#8c52ff" fill-opacity="1"><g transform="translate(97.465434, 359.51443)"><g><path d="M 55.300781 -0.441406 C 89.8125 -4.867188 87.597656 -48.664062 87.597656 -74.769531 C 87.597656 -94.675781 85.386719 -126.53125 102.640625 -141.574219 C 115.027344 -152.191406 138.476562 -156.171875 152.632812 -165.023438 C 182.277344 -183.160156 210.589844 -211.03125 206.167969 -248.636719 C 197.761719 -318.539062 115.914062 -331.8125 58.839844 -330.042969 C 7.964844 -328.273438 12.832031 -281.378906 10.617188 -239.789062 C 7.964844 -186.699219 9.289062 -133.609375 6.636719 -80.078125 C 5.308594 -49.550781 10.617188 5.308594 55.300781 -0.441406 Z M 113.703125 -195.105469 C 89.367188 -187.585938 93.351562 -200.414062 94.234375 -219.4375 C 94.675781 -238.90625 85.828125 -283.589844 115.914062 -268.546875 C 130.070312 -261.027344 138.476562 -242.886719 137.589844 -227.402344 C 137.148438 -211.476562 129.1875 -199.972656 113.703125 -195.105469 Z M 113.703125 -195.105469 "/></g></g></g><g fill="#fd7f32" fill-opacity="1"><g transform="translate(84.169653, 346.218651)"><g><path d="M 55.300781 -0.441406 C 89.8125 -4.867188 87.597656 -48.664062 87.597656 -74.769531 C 87.597656 -94.675781 85.386719 -126.53125 102.640625 -141.574219 C 115.027344 -152.191406 138.476562 -156.171875 152.632812 -165.023438 C 182.277344 -183.160156 210.589844 -211.03125 206.167969 -248.636719 C 197.761719 -318.539062 115.914062 -331.8125 58.839844 -330.042969 C 7.964844 -328.273438 12.832031 -281.378906 10.617188 -239.789062 C 7.964844 -186.699219 9.289062 -133.609375 6.636719 -80.078125 C 5.308594 -49.550781 10.617188 5.308594 55.300781 -0.441406 Z M 113.703125 -195.105469 C 89.367188 -187.585938 93.351562 -200.414062 94.234375 -219.4375 C 94.675781 -238.90625 85.828125 -283.589844 115.914062 -268.546875 C 130.070312 -261.027344 138.476562 -242.886719 137.589844 -227.402344 C 137.148438 -211.476562 129.1875 -199.972656 113.703125 -195.105469 Z M 113.703125 -195.105469 "/></g></g></g></svg>